Coordinates
version=1
nRows=19
nColumns=36
inDegrees=yes

Units are S.I. units (second, meters, Newtons, ...)
If the header above contains a line with 'inDegrees', this indicates whether rotational values are in degrees (yes) or radians (no).

endheader
time	pelvis_tilt	pelvis_list	pelvis_rotation	pelvis_tx	pelvis_ty	pelvis_tz	hip_flexion_r	hip_adduction_r	hip_rotation_r	knee_angle_r	knee_angle_r_beta	ankle_angle_r	subtalar_angle_r	mtp_angle_r	hip_flexion_l	hip_adduction_l	hip_rotation_l	knee_angle_l	knee_angle_l_beta	ankle_angle_l	subtalar_angle_l	mtp_angle_l	lumbar_extension	lumbar_bending	lumbar_rotation	arm_flex_r	arm_add_r	arm_rot_r	elbow_flex_r	pro_sup_r	arm_flex_l	arm_add_l	arm_rot_l	elbow_flex_l	pro_sup_l
      2.16666670	    -12.35863881	     -6.59870538	      8.05346075	      0.73474847	      0.76891615	      0.41843988	     45.60064064	     13.27681627	     -6.49719321	     60.17242312	      1.05020690	     33.80165402	     -4.95817108	     -7.49998006	     76.79396261	    -11.60509232	     14.56644678	     35.62927259	      0.62184812	     -0.21663853	    -19.27008699	     -7.49998006	      0.36279832	      7.34108320	      0.88811828	     36.77726367	      1.47460346	     60.37882041	    126.62151116	     98.47345294	     36.09433156	      4.68662325	     63.66458487	    121.43435704	    104.64877841
      2.18333330	    -12.32608186	     -6.59019617	      8.23544026	      0.73878715	      0.76293404	      0.41603747	     45.95034734	     13.22746381	     -6.82234828	     61.01400930	      1.06489535	     33.94691643	     -5.28493213	     -7.49998016	     77.16195737	    -11.50105129	     15.24515613	     36.08097219	      0.62973176	     -0.14707702	    -19.32255508	     -7.49998016	      0.14573445	      7.16221016	      0.96473803	     36.54429246	      1.50868926	     60.56065795	    126.60599954	     98.48160608	     35.97475565	      4.46627753	     63.68788671	    121.36932571	    104.61609898
      2.20000000	    -13.27747996	     -7.06695628	      8.20682969	      0.73467524	      0.75907720	      0.41846754	     47.74240090	     13.38776292	     -7.52135251	     62.14565250	      1.08464625	     34.20193537	     -5.47892915	     -7.49998068	     79.10385840	    -11.48467887	     16.00813402	     36.98485492	      0.64550749	     -0.21733480	    -19.65030187	     -7.49998068	      0.96719793	      7.37213050	      1.17611885	     37.02134437	      1.09748054	     61.12372795	    127.17582095	     98.67456500	     35.53572246	      4.10135807	     63.36643511	    120.75939523	    104.64524581
      2.21666670	    -13.41835672	     -7.32009355	      8.18329953	      0.73517370	      0.75606766	      0.41870556	     48.79152552	     13.40301846	     -8.01245385	     63.29833256	      1.10476431	     34.20232832	     -5.67404862	     -7.49998673	     79.83956544	    -11.66164127	     16.67660743	     37.67005111	      0.65746642	     -0.41009917	    -19.70353716	     -7.49998673	      0.91589140	      7.61983459	      1.34497015	     37.66909452	      0.94539908	     61.16288852	    127.20532256	     99.03386133	     35.51643289	      3.86066193	     63.05488432	    120.19327627	    105.19424921
      2.23333330	    -13.33868973	     -7.31092533	      8.17962518	      0.73982326	      0.75378778	      0.41596770	     49.04736481	     13.30722016	     -8.08346997	     64.02098904	      1.11737705	     34.22763987	     -5.80769852	     -7.49998688	     79.73130352	    -11.91907869	     16.98488381	     38.18470062	      0.66644875	     -0.50136406	    -20.09877962	     -7.49998688	      0.71342848	      7.57770036	      1.55622224	     37.94674205	      0.82062485	     61.31107922	    127.61640233	     99.09493292	     35.02150450	      3.72979529	     63.04293808	    120.18525342	    105.16859130
      2.25000000	    -13.53054755	     -7.34061278	      8.21026268	      0.73924031	      0.74318708	      0.41550803	     50.08542839	     12.99326350	     -8.37053356	     65.36095075	      1.14076379	     34.64465441	     -5.93303268	     -7.49998916	     80.13860548	    -12.21596955	     17.13650831	     39.20144118	      0.68419422	     -1.04738437	    -20.92719445	     -7.49998916	      0.78181808	      7.64468607	      1.64259271	     38.32669658	      0.87634787	     61.82185239	    128.36478205	     99.90651064	     34.88138119	      4.16840826	     63.75557782	    121.22945364	    105.22127164
      2.26666670	    -13.83394544	     -7.45768152	      8.29692130	      0.73947590	      0.73985660	      0.41563655	     51.06617239	     12.82711270	     -8.56843024	     66.39614109	      1.15883127	     35.31773148	     -6.05249953	     -7.49999373	     80.47276030	    -12.58094988	     17.23404342	     39.97245590	      0.69765097	     -2.29524678	    -22.32288675	     -7.49999373	      0.98654755	      7.76378053	      1.74672797	     38.59228628	      0.58987498	     62.10578850	    128.71582427	     99.34166057	     35.03332408	      4.76538240	     62.98470631	    119.67809672	    105.28426246
      2.28333330	    -14.25161653	     -7.74987350	      8.23997053	      0.73411083	      0.72912563	      0.41342893	     52.33903505	     12.77557894	     -8.97760885	     67.56228694	      1.17918436	     36.01620970	     -5.89324641	     -7.49999381	     81.08078240	    -13.05870409	     17.33762039	     40.55373205	      0.70779615	     -3.78635768	    -23.69885427	     -7.49999381	      1.33354192	      8.27723253	      2.07673803	     39.59980402	      0.10567136	     62.05458686	    129.21835712	     99.69867130	     35.85697253	      5.29466516	     62.50209118	    119.43322298	    105.62353271
      2.30000000	    -14.59363983	     -7.95673285	      8.09201865	      0.72931462	      0.72507628	      0.41157401	     53.68653963	     12.63820598	     -9.20557409	     68.86542066	      1.20192833	     36.52028327	     -5.92629813	     -7.49999389	     81.83295551	    -13.39688922	     17.43207066	     41.12314212	      0.71773423	     -4.80739102	    -24.52697082	     -7.49999389	      1.27028430	      8.82300002	      2.18647677	     40.68117544	     -0.01407590	     62.12752402	    129.58730629	     99.68693106	     37.13490653	      5.72574477	     61.91801368	    119.56383107	    105.56225973
      2.31666670	    -14.99802238	     -8.08283886	      7.87283607	      0.72998791	      0.72524790	      0.41156630	     54.62576861	     12.54406864	     -9.16516898	     69.49626056	      1.21293856	     36.82691304	     -5.87728447	     -7.49999630	     81.71227381	    -13.72455309	     17.38887695	     40.56377162	      0.70797137	     -6.91265777	    -26.31350210	     -7.49999630	      1.30631677	      9.33737516	      2.49904077	     41.11586911	     -0.38551346	     63.29809888	    129.61415846	     98.71255243	     37.29408189	      5.65180345	     61.55042577	    118.97469642	    105.04977701
      2.33333330	    -15.29464234	     -8.23894560	      7.56965107	      0.73104880	      0.72212218	      0.41218482	     55.32884669	     12.74771872	     -8.91960832	     69.81686380	      1.21853415	     36.80324716	     -6.35786397	     -7.49999661	     81.61335735	    -14.24585810	     17.03171927	     40.00377032	      0.69819751	     -8.40955080	    -26.90510886	     -7.49999661	      1.43615659	      9.70194261	      2.98435071	     41.11936838	     -0.35594280	     63.60408733	    129.53165070	     98.83660461	     37.86207531	      6.03559259	     62.03565809	    119.40425222	    105.04439090
      2.35000000	    -15.45148035	     -8.44819043	      7.25481291	      0.73079572	      0.71943238	      0.41220522	     55.50156835	     13.06522972	     -8.83762496	     69.75288949	      1.21741758	     37.01885594	     -6.52785666	     -7.49999702	     81.35010371	    -14.79067116	     16.68092603	     39.36325234	      0.68701836	     -8.60542684	    -26.71561554	     -7.49999702	      1.23831440	     10.19529312	      3.36660840	     40.92082984	     -0.50032365	     63.71858989	    129.38434420	     97.28734307	     37.66246184	      6.23356557	     60.76781310	    117.86241085	    103.29604780
      2.36666670	    -15.77879483	     -8.46490071	      7.10975111	      0.73528248	      0.71466977	      0.40972464	     55.91762992	     13.13187108	     -8.66201936	     69.94411517	      1.22075510	     37.14970676	     -6.93145916	     -7.49999773	     81.29768860	    -15.08334054	     16.26718591	     38.98258654	      0.68037449	     -8.92060351	    -27.11454576	     -7.49999773	      1.54293739	     10.34750475	      3.25943523	     40.57493930	     -0.30022436	     63.45084952	    129.36807348	    100.50838980	     38.38496294	      6.78943834	     60.04503397	    116.27306856	    105.75640827
      2.38333330	    -16.13162449	     -8.36352777	      6.99326532	      0.72981621	      0.71346226	      0.40768470	     56.46070220	     12.97344033	     -8.53294745	     70.31344126	      1.22720106	     37.26497427	     -7.30833280	     -7.49999777	     81.22400641	    -15.08885883	     15.66258412	     38.78662949	      0.67695439	     -8.91173109	    -27.34039605	     -7.49999777	      1.59077073	     10.59703081	      3.56633171	     40.58537855	     -0.41524837	     63.84155824	    129.60115540	    100.60713148	     38.10014862	      6.93636731	     59.62805489	    115.91937714	    105.77309306
      2.40000000	    -16.46441010	     -8.44053596	      6.81076393	      0.73018062	      0.71234384	      0.40793417	     56.93846445	     13.06691759	     -8.57404083	     70.55019063	      1.23133311	     37.79575320	     -7.50202113	     -7.49999852	     80.94552323	    -15.27428549	     15.05070013	     38.48722278	      0.67172876	     -9.22542022	    -27.74843216	     -7.49999852	      1.93669546	     10.86585899	      4.09622237	     40.22739427	     -0.50131178	     64.13349994	    129.76388628	    101.80358357	     36.81654587	      6.01772551	     62.40788395	    119.02898986	    106.60823408
      2.41666670	    -17.04020830	     -8.66567726	      6.75933305	      0.72968662	      0.70867491	      0.40772601	     58.34180134	     13.04731844	     -8.74604608	     71.38465882	      1.24589733	     38.05619381	     -7.83422746	     -7.49999865	     81.79292367	    -15.34237133	     14.82782455	     38.84626400	      0.67799521	     -9.77344480	    -28.13609636	     -7.49999865	      2.40851074	     11.17746902	      4.04886122	     40.14745143	     -0.65437994	     64.43535668	    129.96572727	    100.86910902	     36.70998291	      6.12062012	     63.84104743	    120.35912823	    105.86707772
      2.43333330	    -17.67682505	     -8.95112261	      6.87862731	      0.72922833	      0.70461584	      0.40750970	     59.24191340	     13.17960083	     -8.82701321	     71.43858098	      1.24683845	     38.14487914	     -8.09197256	     -7.49999898	     82.60283946	    -15.27021854	     14.68206191	     38.80628265	      0.67729740	    -10.33168532	    -28.66495220	     -7.49999898	      3.30269412	     11.59699958	      3.95653646	     40.11227720	     -0.80166071	     64.02703001	    130.03495075	    102.06077211	     36.66641092	      6.43192751	     62.85460586	    120.08177576	    106.98346740
      2.45000000	    -17.93749429	     -9.15686246	      7.06916688	      0.72877449	      0.70514186	      0.40740184	     59.79980801	     13.20843995	     -8.88503476	     71.60991317	      1.24982876	     37.96943560	     -8.51268226	     -7.49999911	     82.87078604	    -15.15620234	     14.37217047	     38.71879543	      0.67577046	    -10.32623583	    -28.78294997	     -7.49999911	      3.57445641	     11.90160845	      3.92621613	     39.83244707	     -1.08907754	     64.12650565	    130.19832456	    100.34200513	     36.66540818	      6.52852610	     62.37313697	    119.62203325	    105.21377038
      2.46666670	    -18.21439142	     -9.17760771	      7.06194354	      0.72390273	      0.70311613	      0.40520006	     60.56568554	     13.15339250	     -8.78955237	     72.09601116	      1.25831277	     37.67555284	     -8.97727381	     -7.49999912	     83.32316726	    -15.12205107	     14.04340769	     38.90750202	      0.67906401	    -10.06203221	    -28.67929815	     -7.49999912	      3.81652494	     12.15881118	      3.46000371	     40.49669338	     -0.92906822	     64.12155473	    129.72655775	    100.63564144	     38.12620073	      7.39098287	     61.20733962	    117.96391386	    105.37866917
